<?xml version="1.0" encoding="UTF-8" standalone="no"?>
<svg width="158px" height="158px" viewBox="0 0 158 158" version="1.1" xmlns="http://www.w3.org/2000/svg" xmlns:xlink="http://www.w3.org/1999/xlink" xmlns:sketch="http://www.bohemiancoding.com/sketch/ns">
    <!-- Generator: Sketch 3.3 (11970) - http://www.bohemiancoding.com/sketch -->
    <title>Oval 1 Copy 11</title>
    <desc>Created with Sketch.</desc>
    <defs></defs>
    <g id="Page-1" stroke="none" stroke-width="1" fill="none" fill-rule="evenodd" sketch:type="MSPage">
        <g id="Group" sketch:type="MSLayerGroup">
            <circle id="Oval-1-Copy-8" stroke="#34BF90" sketch:type="MSShapeGroup" cx="78.198739" cy="79.6929825" r="76.2280702"></circle>
            <path d="M98.1635124,153.338148 C130.689915,144.638056 154.643366,114.962833 154.643366,79.6929825 C154.643366,37.5933818 120.514897,3.46491228 78.4152961,3.46491228" id="Oval-1-Copy-11" stroke="#34BF90" stroke-width="3" sketch:type="MSShapeGroup"></path>
            <path d="M52.791404,96.418807 L52.791404,88.0475789 L57.7254391,88.0475789 L57.7254391,82.3374035 L52.791404,82.3374035 L52.791404,59.4412632 L43.86579,59.4412632 L28.6756145,82.8363509 L28.6756145,88.0475789 L46.3050882,88.0475789 L46.3050882,96.418807 L52.791404,96.418807 Z M46.3050882,82.3374035 L35.0510531,82.3374035 L46.3050882,65.2623158 L46.3050882,82.3374035 Z M73.830351,96.418807 L88.1335089,63.9317895 L88.1335089,59.4412632 L61.467544,59.4412632 L61.467544,65.1514386 L80.6492984,65.1514386 L66.6787721,96.418807 L73.830351,96.418807 Z M100.912105,77.2370526 C106.455965,77.2370526 110.114912,73.2454737 110.114912,68.0896842 C110.114912,62.8784561 106.455965,58.8868772 100.912105,58.8868772 C95.423684,58.8868772 91.7092981,62.8784561 91.7092981,68.0896842 C91.7092981,73.2454737 95.423684,77.2370526 100.912105,77.2370526 L100.912105,77.2370526 Z M101.022982,96.418807 L124.695263,59.4412632 L120.925438,59.4412632 L97.3085963,96.418807 L101.022982,96.418807 Z M120.814561,97.0840702 C126.302982,97.0840702 130.017368,93.0924912 130.017368,87.9367018 C130.017368,82.7254737 126.302982,78.7338947 120.814561,78.7338947 C115.32614,78.7338947 111.611754,82.7254737 111.611754,87.9367018 C111.611754,93.0924912 115.32614,97.0840702 120.814561,97.0840702 L120.814561,97.0840702 Z M100.912105,73.5226667 C98.0847367,73.5226667 96.0335086,71.3051228 96.0335086,68.0896842 C96.0335086,64.818807 98.0847367,62.5458246 100.912105,62.5458246 C103.794912,62.5458246 105.84614,64.818807 105.84614,68.0896842 C105.84614,71.3051228 103.794912,73.5226667 100.912105,73.5226667 L100.912105,73.5226667 Z M120.814561,93.3696842 C117.931754,93.3696842 115.880526,91.1521404 115.880526,87.9367018 C115.880526,84.6658246 117.931754,82.3928421 120.814561,82.3928421 C123.697368,82.3928421 125.748596,84.6658246 125.748596,87.9367018 C125.748596,91.1521404 123.697368,93.3696842 120.814561,93.3696842 L120.814561,93.3696842 Z" id="47%-copy" fill="#34BF90" sketch:type="MSShapeGroup"></path>
        </g>
    </g>
</svg>