<?xml version="1.0" encoding="UTF-8" standalone="no"?>
<svg width="158px" height="158px" viewBox="0 0 158 158" version="1.1" xmlns="http://www.w3.org/2000/svg" xmlns:xlink="http://www.w3.org/1999/xlink" xmlns:sketch="http://www.bohemiancoding.com/sketch/ns">
    <!-- Generator: Sketch 3.3 (11970) - http://www.bohemiancoding.com/sketch -->
    <title>Oval 1 Copy 9</title>
    <desc>Created with Sketch.</desc>
    <defs></defs>
    <g id="Page-1" stroke="none" stroke-width="1" fill="none" fill-rule="evenodd" sketch:type="MSPage">
        <g id="Group" sketch:type="MSLayerGroup">
            <path d="M10.1414083,113.126237 C22.3901299,138.841527 48.6195691,156.614035 79,156.614035 C121.099601,156.614035 155.22807,122.485566 155.22807,80.3859649 C155.22807,38.2863642 121.099601,4.15789474 79,4.15789474 C36.9003993,4.15789474 2.77192982,38.2863642 2.77192982,80.3859649 C2.77192982,92.1051347 5.41649671,103.206633 10.1414083,113.126237 Z" id="Oval-1-Copy-13" stroke="#8E24AA" sketch:type="MSShapeGroup"></path>
            <path d="M139.943439,126.037908 C149.474415,113.312327 155.119792,97.50842 155.119792,80.3859649 C155.119792,38.2863642 120.991322,4.15789474 78.8917215,4.15789474" id="Oval-1-Copy-12" stroke="#8E24AA" stroke-width="3" sketch:type="MSShapeGroup"></path>
            <path d="M41.8448799,97.682807 C50.4378623,97.682807 55.8154062,93.1922807 55.8154062,86.8722807 C55.8154062,81.1621053 50.7704939,78.2792982 47.2224237,77.8912281 C50.9922483,77.2814035 55.2055816,74.3985965 55.2055816,69.4091228 C55.2055816,63.2554386 49.8834764,59.485614 41.9003185,59.485614 C35.7466343,59.485614 31.256108,61.9249123 28.3733009,65.3066667 L31.6996167,69.3536842 C34.3606694,66.637193 37.4652308,65.2512281 41.2904939,65.2512281 C45.3929501,65.2512281 48.7747044,67.0252632 48.7747044,70.4070175 C48.7747044,73.7887719 45.5038273,75.285614 41.1241781,75.285614 C39.6827746,75.285614 37.5206694,75.285614 36.9108448,75.2301754 L36.9108448,81.1066667 C37.4652308,81.0512281 39.5718974,80.9957895 41.1241781,80.9957895 C46.4462834,80.9957895 49.3290904,82.6035088 49.3290904,86.2624561 C49.3290904,89.6442105 46.501722,91.917193 41.6231255,91.917193 C37.6869851,91.917193 33.8062834,90.1985965 31.4224237,87.4266667 L27.8743536,91.6954386 C30.424529,95.0217544 35.3031255,97.682807 41.8448799,97.682807 L41.8448799,97.682807 Z M84.7266339,97.0175439 L84.7266339,88.6463158 L89.660669,88.6463158 L89.660669,82.9361404 L84.7266339,82.9361404 L84.7266339,60.04 L75.8010199,60.04 L60.6108445,83.4350877 L60.6108445,88.6463158 L78.2403181,88.6463158 L78.2403181,97.0175439 L84.7266339,97.0175439 Z M78.2403181,82.9361404 L66.9862831,82.9361404 L78.2403181,65.8610526 L78.2403181,82.9361404 Z M102.66102,77.8357895 C108.204879,77.8357895 111.863827,73.8442105 111.863827,68.6884211 C111.863827,63.477193 108.204879,59.485614 102.66102,59.485614 C97.1725985,59.485614 93.4582126,63.477193 93.4582126,68.6884211 C93.4582126,73.8442105 97.1725985,77.8357895 102.66102,77.8357895 L102.66102,77.8357895 Z M102.771897,97.0175439 L126.444177,60.04 L122.674353,60.04 L99.0575108,97.0175439 L102.771897,97.0175439 Z M122.563476,97.682807 C128.051897,97.682807 131.766283,93.6912281 131.766283,88.5354386 C131.766283,83.3242105 128.051897,79.3326316 122.563476,79.3326316 C117.075055,79.3326316 113.360669,83.3242105 113.360669,88.5354386 C113.360669,93.6912281 117.075055,97.682807 122.563476,97.682807 L122.563476,97.682807 Z M102.66102,74.1214035 C99.8336512,74.1214035 97.7824231,71.9038596 97.7824231,68.6884211 C97.7824231,65.4175439 99.8336512,63.1445614 102.66102,63.1445614 C105.543827,63.1445614 107.595055,65.4175439 107.595055,68.6884211 C107.595055,71.9038596 105.543827,74.1214035 102.66102,74.1214035 L102.66102,74.1214035 Z M122.563476,93.9684211 C119.680669,93.9684211 117.629441,91.7508772 117.629441,88.5354386 C117.629441,85.2645614 119.680669,82.9915789 122.563476,82.9915789 C125.446283,82.9915789 127.497511,85.2645614 127.497511,88.5354386 C127.497511,91.7508772 125.446283,93.9684211 122.563476,93.9684211 L122.563476,93.9684211 Z" id="34%-copy" fill="#8E24AA" sketch:type="MSShapeGroup"></path>
        </g>
    </g>
</svg>