<?xml version="1.0" encoding="UTF-8" standalone="no"?>
<svg width="158px" height="158px" viewBox="0 0 158 158" version="1.1" xmlns="http://www.w3.org/2000/svg" xmlns:xlink="http://www.w3.org/1999/xlink" xmlns:sketch="http://www.bohemiancoding.com/sketch/ns">
    <!-- Generator: Sketch 3.3 (11970) - http://www.bohemiancoding.com/sketch -->
    <title>Oval 1 Copy 10</title>
    <desc>Created with Sketch.</desc>
    <defs></defs>
    <g id="Page-1" stroke="none" stroke-width="1" fill="none" fill-rule="evenodd" sketch:type="MSPage">
        <g id="Group" sketch:type="MSLayerGroup"></g>
        <g id="Oval-1-Copy-6-+-Oval-1-Copy-7-+-57%-copy" sketch:type="MSLayerGroup" transform="translate(2.000000, 1.500000)">
            <circle id="Oval-1-Copy-6" stroke="#3949AB" sketch:type="MSShapeGroup" cx="76.3063063" cy="77.2418437" r="76.3063063"></circle>
            <path d="M36.3848125,142.284677 C47.9986337,149.428129 61.6713287,153.54815 76.3063063,153.54815 C118.449116,153.54815 152.612613,119.384653 152.612613,77.2418437 C152.612613,35.0990344 118.449116,0.935537356 76.3063063,0.935537356" id="Oval-1-Copy-7" stroke="#3949AB" stroke-width="3" sketch:type="MSShapeGroup"></path>
            <path d="M42.7731536,94.6507806 C51.0419825,94.6507806 56.924505,89.767177 56.924505,82.1087986 C56.924505,74.5059157 51.31946,70.1772671 45.048469,70.1772671 C41.4967573,70.1772671 38.5000005,71.62015 36.6686491,73.3405103 L36.6686491,62.6853752 L54.4272077,62.6853752 L54.4272077,56.9693392 L30.1756762,56.9693392 L30.1756762,77.6136635 L34.7818023,78.9455554 C37.1681086,76.7257356 39.7763969,75.7823121 42.8841446,75.7823121 C47.4347753,75.7823121 50.320541,78.3906004 50.320541,82.3307806 C50.320541,85.9934833 47.4347753,88.8792491 42.7176582,88.8792491 C38.6109915,88.8792491 35.2257663,87.3253752 32.7839645,84.4396094 L29.0657663,88.9347446 C32.062523,92.4309608 36.4466672,94.6507806 42.7731536,94.6507806 L42.7731536,94.6507806 Z M73.7673876,93.9848347 L88.0852254,61.4644743 L88.0852254,56.9693392 L61.3918921,56.9693392 L61.3918921,62.6853752 L80.5933335,62.6853752 L66.6084686,93.9848347 L73.7673876,93.9848347 Z M100.876937,74.7833932 C106.426486,74.7833932 110.089189,70.7877175 110.089189,65.6266365 C110.089189,60.4100599 106.426486,56.4143842 100.876937,56.4143842 C95.3828827,56.4143842 91.6646845,60.4100599 91.6646845,65.6266365 C91.6646845,70.7877175 95.3828827,74.7833932 100.876937,74.7833932 L100.876937,74.7833932 Z M100.987928,93.9848347 L124.684504,56.9693392 L120.910811,56.9693392 L97.2697296,93.9848347 L100.987928,93.9848347 Z M120.79982,94.6507806 C126.293874,94.6507806 130.012072,90.6551049 130.012072,85.4940238 C130.012072,80.2774473 126.293874,76.2817716 120.79982,76.2817716 C115.305766,76.2817716 111.587567,80.2774473 111.587567,85.4940238 C111.587567,90.6551049 115.305766,94.6507806 120.79982,94.6507806 L120.79982,94.6507806 Z M100.876937,71.065195 C98.0466665,71.065195 95.9933332,68.8453752 95.9933332,65.6266365 C95.9933332,62.3524022 98.0466665,60.0770869 100.876937,60.0770869 C103.762703,60.0770869 105.816036,62.3524022 105.816036,65.6266365 C105.816036,68.8453752 103.762703,71.065195 100.876937,71.065195 L100.876937,71.065195 Z M120.79982,90.9325824 C117.914054,90.9325824 115.860721,88.7127626 115.860721,85.4940238 C115.860721,82.2197896 117.914054,79.9444743 120.79982,79.9444743 C123.685585,79.9444743 125.738919,82.2197896 125.738919,85.4940238 C125.738919,88.7127626 123.685585,90.9325824 120.79982,90.9325824 L120.79982,90.9325824 Z" id="57%-copy" fill="#3949AB" sketch:type="MSShapeGroup"></path>
        </g>
    </g>
</svg>
